<?xml version="1.0" standalone="no"?>
<!DOCTYPE svg PUBLIC "-//W3C//DTD SVG 20010904//EN"
 "http://www.w3.org/TR/2001/REC-SVG-20010904/DTD/svg10.dtd">
<svg version="1.0" xmlns="http://www.w3.org/2000/svg"
 width="512.000000pt" height="512.000000pt" viewBox="0 0 512.000000 512.000000"
 preserveAspectRatio="xMidYMid meet">

<g transform="translate(0.000000,512.000000) scale(0.100000,-0.100000)"
fill="#000000" stroke="none">
<path d="M2403 5106 c-388 -74 -684 -383 -739 -768 l-6 -48 -77 0 c-93 0 -144
-25 -178 -85 -21 -38 -23 -51 -23 -247 l0 -208 -386 0 c-409 0 -452 -4 -497
-46 -53 -49 -62 -79 -62 -209 0 -127 8 -158 54 -199 21 -19 21 -24 21 -483 l0
-463 -177 0 c-229 -1 -269 -14 -314 -102 -27 -53 -27 -244 0 -304 18 -39 54
-73 94 -87 16 -6 17 -58 17 -907 l0 -901 25 -24 24 -25 2381 0 2381 0 24 25
25 24 0 901 c0 849 1 901 18 907 39 14 75 48 93 87 26 58 27 244 0 301 -41 90
-83 104 -313 105 l-178 0 0 463 c0 459 0 464 21 483 45 40 53 72 54 199 0 96
-4 126 -18 152 -26 48 -65 80 -113 92 -55 14 -232 14 -272 0 -35 -12 -57 -56
-48 -94 11 -42 52 -55 181 -55 l115 0 0 -95 0 -95 -390 0 -390 0 0 94 0 94
109 4 c90 2 113 6 130 22 27 24 28 76 2 107 -18 22 -27 24 -135 27 l-116 4 0
206 c0 196 -2 209 -23 247 -34 60 -85 85 -179 85 l-76 0 -12 72 c-30 179 -109
337 -238 480 -93 102 -276 210 -427 249 -103 26 -284 34 -382 15z m277 -147
c279 -45 509 -244 597 -517 37 -113 43 -276 14 -396 -60 -252 -256 -466 -496
-542 -263 -84 -545 -22 -745 162 -111 104 -185 231 -221 381 -27 114 -23 281
11 388 113 361 470 584 840 524z m-1010 -891 c65 -365 344 -657 704 -735 93
-20 279 -20 372 0 360 78 639 370 704 735 l13 73 61 -3 61 -3 5 -1403 5 -1404
24 -19 c25 -21 62 -25 91 -9 34 18 40 65 40 306 l0 234 540 0 540 0 0 -845 0
-845 -540 0 -540 0 0 419 c0 279 -4 429 -11 450 -19 55 -82 69 -124 26 l-25
-24 0 -436 0 -435 -180 0 -180 0 0 648 c0 631 -1 648 -20 680 -38 63 -31 62
-650 62 -619 0 -612 1 -650 -62 -19 -32 -20 -49 -20 -680 l0 -648 -180 0 -180
0 0 1988 c0 1094 3 1992 7 1995 3 4 32 7 63 7 l57 0 13 -72z m-300 -573 l0
-95 -390 0 -390 0 0 95 0 95 390 0 390 0 0 -95z m3 -367 c4 -62 7 -263 7 -445
l0 -333 -360 0 -360 0 0 445 0 445 353 0 354 0 6 -112z m3087 -333 l0 -445
-360 0 -360 0 0 333 c0 182 3 383 7 445 l6 112 354 0 353 0 0 -445z m-3090
-699 l0 -95 -196 -3 c-192 -3 -196 -3 -215 -27 -26 -32 -24 -77 6 -106 24 -25
26 -25 215 -25 l190 0 0 -845 0 -845 -545 0 -545 0 0 708 c0 390 3 770 7 845
l6 137 187 0 c174 0 189 1 214 21 32 25 35 75 7 110 -19 24 -21 24 -283 29
l-263 5 -3 79 c-2 44 -1 85 2 93 4 11 114 13 611 13 l605 0 0 -94z m3595 -1
l0 -90 -607 -3 -608 -2 0 95 0 95 608 -2 607 -3 0 -90z m-2485 -1325 l0 -620
-220 0 -220 0 0 620 0 620 220 0 220 0 0 -620z m600 0 l0 -620 -220 0 -220 0
0 620 0 620 220 0 220 0 0 -620z"/>
<path d="M2353 4720 c-47 -28 -63 -67 -63 -155 l0 -75 -72 0 c-83 0 -129 -18
-162 -63 -19 -26 -21 -45 -24 -193 -3 -149 -2 -168 17 -207 29 -59 68 -80 163
-85 l78 -5 0 -74 c0 -88 15 -121 70 -152 34 -19 54 -21 200 -21 146 0 166 2
200 21 55 31 70 64 70 152 l0 74 78 5 c95 5 134 26 163 85 19 39 20 58 17 205
-3 153 -4 165 -27 197 -32 44 -76 61 -161 61 l-70 0 0 78 c0 59 -5 85 -20 109
-34 57 -59 63 -252 63 -154 0 -177 -2 -205 -20z"/>
<path d="M1989 3121 c-99 -31 -100 -38 -97 -362 l3 -271 37 -34 38 -34 590 0
590 0 38 34 37 34 3 266 c3 233 1 270 -14 301 -34 72 -14 70 -639 72 -308 1
-572 -2 -586 -6z m1091 -351 l0 -200 -520 0 -520 0 0 200 0 200 520 0 520 0 0
-200z"/>
<path d="M1953 2250 c-55 -33 -63 -62 -63 -218 0 -128 2 -142 23 -173 40 -60
41 -60 666 -57 537 3 567 4 594 22 49 34 57 62 57 214 0 128 -2 142 -23 173
-12 18 -34 39 -47 46 -19 10 -160 13 -600 13 -553 0 -576 -1 -607 -20z m1127
-208 l0 -79 -157 -6 c-87 -4 -321 -7 -520 -7 l-363 0 0 85 0 85 520 0 520 0 0
-78z"/>
<path d="M3933 1690 c-53 -32 -63 -64 -63 -195 0 -126 9 -157 56 -194 26 -20
37 -21 346 -21 278 0 324 2 348 16 51 31 60 60 60 194 0 136 -10 168 -63 200
-30 19 -52 20 -342 20 -290 0 -312 -1 -342 -20z m595 -197 l3 -63 -256 0 -255
0 0 58 c0 32 3 62 7 66 4 3 117 5 252 4 l246 -3 3 -62z"/>
<path d="M3940 1162 c-60 -32 -71 -68 -68 -214 3 -125 3 -127 33 -158 16 -16
47 -35 68 -41 25 -6 148 -9 331 -7 266 3 293 5 319 22 48 33 57 63 57 198 0
106 -3 128 -20 156 -36 59 -56 62 -387 62 -270 0 -302 -2 -333 -18z m590 -202
l0 -60 -255 0 -255 0 0 60 0 60 255 0 255 0 0 -60z"/>
<path d="M886 3079 c-23 -18 -26 -27 -26 -88 0 -58 3 -71 23 -89 31 -29 72
-28 102 3 21 20 25 34 25 85 0 51 -4 65 -25 85 -30 30 -64 32 -99 4z"/>
<path d="M1126 3079 c-24 -19 -26 -27 -26 -89 0 -58 3 -72 22 -90 30 -27 73
-26 103 5 21 20 25 34 25 85 0 51 -4 65 -25 85 -30 30 -64 32 -99 4z"/>
<path d="M903 2790 c-32 -13 -43 -41 -43 -109 0 -73 21 -101 74 -101 50 0 76
37 76 106 0 41 -5 58 -22 78 -27 29 -55 38 -85 26z"/>
<path d="M1143 2790 c-32 -13 -43 -41 -43 -109 0 -73 21 -101 74 -101 50 0 76
37 76 106 0 41 -5 58 -22 78 -27 29 -55 38 -85 26z"/>
<path d="M3895 3075 c-21 -20 -25 -34 -25 -85 0 -51 4 -65 25 -85 31 -32 74
-33 103 -2 18 19 22 35 22 89 0 60 -3 69 -26 87 -35 28 -69 26 -99 -4z"/>
<path d="M4135 3075 c-21 -20 -25 -34 -25 -85 0 -51 4 -65 25 -85 30 -31 73
-32 103 -5 19 18 22 32 22 90 0 62 -2 70 -26 89 -35 28 -69 26 -99 -4z"/>
<path d="M3924 2790 c-36 -14 -54 -50 -54 -106 0 -67 27 -104 76 -104 54 0 74
28 74 104 0 87 -38 129 -96 106z"/>
<path d="M4164 2790 c-36 -14 -54 -50 -54 -106 0 -66 27 -104 74 -104 17 0 42
7 54 16 19 13 22 24 22 88 0 57 -4 76 -17 88 -25 22 -54 28 -79 18z"/>
<path d="M503 1690 c-56 -34 -65 -65 -61 -212 l3 -130 37 -34 38 -34 324 0
c313 0 324 1 350 21 47 37 56 68 56 194 0 131 -10 163 -63 195 -30 19 -52 20
-342 20 -290 0 -312 -1 -342 -20z m595 -197 l3 -63 -256 0 -255 0 0 58 c0 32
3 62 7 66 4 3 117 5 252 4 l246 -3 3 -62z"/>
<path d="M511 1163 c-59 -29 -71 -62 -71 -196 0 -135 11 -171 63 -202 29 -18
55 -20 319 -23 177 -2 301 1 325 7 22 6 52 25 68 41 30 31 30 33 33 158 3 146
-8 182 -68 214 -31 16 -63 18 -335 18 -259 0 -305 -3 -334 -17z m589 -203 l0
-60 -255 0 -255 0 0 60 0 60 255 0 255 0 0 -60z"/>
</g>
</svg>
